<svg width="20" height="20" viewBox="0 0 20 20" fill="none" xmlns="http://www.w3.org/2000/svg">
<path d="M19.4514 14.99L19.4514 14.9922C19.4517 15.0546 19.4337 15.123 19.3891 15.1928L19.3891 15.1928L19.3861 15.1976L18.7065 16.2886L18.7055 16.2902C18.5735 16.5039 18.5002 16.7474 18.5002 17.0005C18.5002 17.2536 18.5735 17.4971 18.7055 17.7108L18.7067 17.7127L19.385 18.7997L19.3849 18.7998L19.3916 18.81C19.435 18.8758 19.4517 18.9396 19.4514 18.9968V19C19.4514 19.0925 19.4063 19.2104 19.2733 19.317C19.1375 19.426 18.9339 19.5 18.7044 19.5H3.74088C2.84999 19.5 2.01203 19.2153 1.40849 18.7313C0.807835 18.2496 0.5 17.6229 0.5 17V3C0.5 2.37706 0.807835 1.75044 1.40849 1.26874C2.01203 0.784732 2.84999 0.5 3.74088 0.5H17.4574C18.0176 0.5 18.5384 0.679375 18.9081 0.97585C19.2749 1.27001 19.4514 1.64228 19.4514 2L19.4514 14.99ZM16.718 18.5H17.4836L17.1758 17.799C16.9479 17.2799 16.9479 16.7201 17.1758 16.201L17.4836 15.5H16.718H3.74088C3.30892 15.5 2.8782 15.6367 2.54634 15.9028C2.21159 16.1713 1.99392 16.5621 1.99392 17C1.99392 17.4379 2.21159 17.8287 2.54634 18.0972C2.8782 18.3633 3.30892 18.5 3.74088 18.5H16.718ZM7.48176 4.5C7.0498 4.5 6.61908 4.6367 6.28722 4.90283C5.95247 5.17128 5.7348 5.56208 5.7348 6C5.7348 6.43793 5.95247 6.82872 6.28722 7.09717C6.61908 7.3633 7.0498 7.5 7.48176 7.5H12.4696C12.9016 7.5 13.3323 7.3633 13.6642 7.09717C13.9989 6.82872 14.2166 6.43792 14.2166 6C14.2166 5.56208 13.9989 5.17128 13.6642 4.90283C13.3323 4.6367 12.9016 4.5 12.4696 4.5H7.48176Z" stroke="#512E7E"/>
</svg>
